<svg width="50" height="50" viewBox="0 0 50 50" fill="none" xmlns="http://www.w3.org/2000/svg">
<path d="M35.0234 11.433V3.00304C35.0234 1.65913 33.9243 0.55957 32.5799 0.55957H2.44372C1.09981 0.55957 0.000244141 1.65913 0.000244141 3.00304V4.5913V36.4379V37.5379C0.000244141 38.4334 0.529664 39.2886 1.30343 39.6959L19.8739 49.3073C20.6883 49.7145 21.6657 49.1448 21.6657 48.2077V38.8411H32.5799C33.9243 38.8411 35.0234 37.7419 35.0234 36.3976V23.0399H30.1365V32.7324C30.1365 33.4247 29.607 33.9541 28.9147 33.9541H21.7065V21.411V13.4697V13.2253C21.7065 12.3294 21.177 11.4742 20.4033 11.0669L9.44835 5.44693H28.9147C29.607 5.44693 30.1365 5.97634 30.1365 6.66866V11.4742H35.0234V11.433Z" fill="#D72323"/>
<path d="M41.295 7.44163L49.2363 15.3829C50.2544 16.401 50.2544 17.9078 49.2363 18.926L41.295 26.8673C40.2769 27.8854 38.7289 27.9265 37.7108 26.9084C36.7338 25.9314 36.8556 24.302 37.7927 23.3246L41.376 19.7816H27.4893C26.7974 19.7816 26.1047 19.4965 25.6567 18.9671C24.5164 17.7454 24.8015 15.587 26.2676 14.7725C26.6341 14.5688 27.0821 14.4467 27.4893 14.4467H41.3764C41.3764 14.4467 37.8338 10.9036 37.7931 10.9036C36.856 9.96696 36.7338 8.29725 37.7112 7.36058C38.6886 6.38319 40.2769 6.42351 41.295 7.44163Z" fill="#D72323"/>
</svg>
