<svg width="80" height="60" viewBox="0 0 80 60" fill="none" xmlns="http://www.w3.org/2000/svg">
<g clip-path="url(#clip0_5_102)">
<path d="M80 19.636C78.1964 23.5196 74.0947 29.8176 66.9093 28.3631C65.5549 28.0994 64.1512 28.2952 62.9208 28.9197C61.6903 29.5441 60.7035 30.5614 60.1167 31.8103C59.5023 33.1026 58.6224 34.2508 57.5344 35.1802C56.4464 36.1095 55.1748 36.7991 53.8024 37.204C52.43 37.6088 50.9876 37.7199 49.5694 37.5299C48.1512 37.3398 46.789 36.853 45.5716 36.1012C46.8451 34.8204 47.9101 33.348 48.7279 31.7376C48.8264 31.5016 48.8325 31.2371 48.745 30.9967C48.6574 30.7564 48.4826 30.5578 48.2553 30.4405C48.028 30.3232 47.7649 30.2957 47.5182 30.3636C47.2716 30.4314 47.0596 30.5896 46.9243 30.8067C46.0189 32.5796 44.7906 34.168 43.3025 35.4903C41.8583 36.7563 40.1912 37.7428 38.3862 38.3993C35.1471 39.6395 31.5906 39.7833 28.262 38.8086C24.9333 37.8339 22.0161 35.7945 19.9575 33.003L20.3793 32.6103C21.5637 31.3805 22.5544 29.9778 23.3174 28.4504C23.3932 28.3251 23.4406 28.1848 23.4564 28.0393C23.4722 27.8938 23.456 27.7466 23.4088 27.608C23.3617 27.4694 23.2849 27.3428 23.1836 27.2371C23.0824 27.1313 22.9593 27.049 22.8229 26.9959C22.5868 26.8896 22.3188 26.8787 22.0748 26.9655C21.8309 27.0522 21.6299 27.2299 21.5138 27.4613C20.8223 28.8052 19.9241 30.0322 18.8521 31.0976C18.548 31.4064 18.2223 31.6932 17.8776 31.9558C15.6722 33.7124 12.8968 34.5946 10.0819 34.4336C7.26707 34.2726 4.61031 33.0797 2.61966 31.0831C0.941826 29.396 0 27.1134 0 24.7341C0 22.3548 0.941826 20.0722 2.61966 18.3851C3.28043 17.7192 4.07017 17.1951 4.94052 16.845C5.81087 16.4948 6.74352 16.326 7.68138 16.3488C9.48461 16.3807 11.2052 17.1107 12.4813 18.3851C13.4859 19.3961 14.0497 20.7635 14.0497 22.1887C14.0497 23.6139 13.4859 24.9813 12.4813 25.9923C12.1023 26.3785 11.6494 26.6845 11.1496 26.8919C10.6498 27.0993 10.1134 27.2039 9.57225 27.1995C9.03114 27.2039 8.49468 27.0993 7.99488 26.8919C7.49508 26.6845 7.04219 26.3785 6.66322 25.9923C6.56771 25.8968 6.45433 25.821 6.32955 25.7693C6.20477 25.7176 6.07102 25.691 5.93596 25.691C5.8009 25.691 5.66715 25.7176 5.54237 25.7693C5.41759 25.821 5.30421 25.8968 5.2087 25.9923C5.1132 26.0878 5.03744 26.2011 4.98575 26.3259C4.93406 26.4507 4.90746 26.5845 4.90746 26.7195C4.90746 26.8546 4.93406 26.9883 4.98575 27.1131C5.03744 27.2379 5.1132 27.3513 5.2087 27.4468C5.77751 28.0252 6.45708 28.483 7.20681 28.7929C7.95654 29.1028 8.76105 29.2584 9.57225 29.2504C10.3824 29.2511 11.1848 29.0922 11.9335 28.7827C12.6822 28.4732 13.3626 28.0193 13.9358 27.4468C15.3259 26.0558 16.1067 24.1697 16.1067 22.2032C16.1067 20.2367 15.3259 18.3507 13.9358 16.9597C12.5068 15.5302 10.6352 14.6277 8.62682 14.3998C8.62682 14.0798 8.62682 13.7743 8.62682 13.4689C8.63383 11.3819 9.20197 9.33528 10.2717 7.54335C11.3415 5.75143 12.8735 4.28019 14.7072 3.28376C16.5409 2.28734 18.6088 1.80242 20.6944 1.8798C22.7799 1.95718 24.8062 2.59402 26.561 3.7236C25.0785 5.79116 24.1929 8.22653 24.0011 10.7635C23.9911 10.9032 24.01 11.0434 24.0567 11.1755C24.1033 11.3075 24.1767 11.4285 24.2723 11.5309C24.3679 11.6333 24.4835 11.7149 24.612 11.7705C24.7406 11.8262 24.8792 11.8547 25.0192 11.8543C25.2759 11.8477 25.521 11.7458 25.7065 11.5683C25.8921 11.3908 26.0049 11.1505 26.0228 10.8944C26.1917 8.79732 26.9169 6.78326 28.1237 5.05997C29.3305 3.33668 30.9752 1.96655 32.8882 1.09092C34.4365 0.36863 36.125 -0.00381882 37.8335 2.95209e-05C40.0011 0.00127278 42.0998 0.761245 43.7656 2.1481C45.4315 3.53495 46.5593 5.46118 46.9534 7.59261C47.0535 8.14937 47.1022 8.71417 47.0988 9.27985C47.0988 11.2087 46.3326 13.0585 44.9687 14.4223C43.6048 15.7862 41.755 16.5524 39.8262 16.5524C38.355 16.5448 36.9461 15.957 35.9058 14.9166C34.8655 13.8763 34.2776 12.4674 34.27 10.9962C34.2543 10.4263 34.3536 9.85903 34.5619 9.32829C34.7701 8.79755 35.0831 8.31418 35.4822 7.90698C35.8812 7.49978 36.3582 7.1771 36.8846 6.95816C37.411 6.73922 37.9761 6.62851 38.5462 6.63263C38.8022 6.63555 39.0506 6.54591 39.2457 6.3802C39.4408 6.2145 39.5695 5.98389 39.608 5.73083C39.6244 5.5889 39.6107 5.44512 39.5678 5.30884C39.5249 5.17256 39.4538 5.04684 39.3592 4.93983C39.2645 4.83283 39.1484 4.74694 39.0183 4.68776C38.8883 4.62857 38.7473 4.59741 38.6044 4.5963C37.7638 4.58843 36.9302 4.74891 36.1526 5.0683C35.375 5.38768 34.6692 5.8595 34.0768 6.45595C33.4844 7.05239 33.0174 7.7614 32.7034 8.54116C32.3893 9.32092 32.2346 10.1557 32.2482 10.9962C32.2482 13.0099 33.0481 14.9411 34.472 16.3649C35.8959 17.7888 37.8271 18.5888 39.8408 18.5888C42.2917 18.5888 44.6425 17.6161 46.3769 15.8844C48.1113 14.1527 49.0876 11.8035 49.0915 9.35258C49.0915 9.06167 49.0915 8.77077 49.0915 8.47987C50.8918 8.56435 52.5947 9.32231 53.8623 10.6035C54.5738 11.3113 55.131 12.1587 55.499 13.0925C55.867 14.0262 56.0377 15.0259 56.0005 16.0288V17.3815L57.3095 17.0761C58.8451 16.7218 60.441 16.7196 61.9776 17.0697C63.5142 17.4199 64.9516 18.1132 66.1821 19.0978C68.1811 20.5272 70.5549 21.3399 73.0105 21.4355C75.4661 21.5312 77.8959 20.9056 80 19.636Z" fill="#D72323"/>
<path d="M2.00021 59.2413V49.4477H9.14961L10.6187 50.9167V55.0301L9.14961 56.4992H4.54639V59.2414H2L2.00021 59.2413ZM4.5467 54.3443H8.07255V51.6021H4.5467V54.3443ZM36.0825 59.2413V50.9165L37.5516 49.4474H43.2318L44.7009 50.9165V59.2413H42.1545V56.499H38.6286V59.2413H36.0822H36.0825ZM38.629 54.3443H42.1549V51.6021H38.629V54.3443ZM70.1648 57.7722V49.4474H72.7112V57.0867H78V59.2413H71.6342L70.1648 57.7722Z" fill="#D72323"/>
</g>
<defs>
<clipPath id="clip0_5_102">
<rect width="80" height="59.394" fill="white"/>
</clipPath>
</defs>
</svg>
