<svg width="150" height="112" viewBox="0 0 150 112" fill="none" xmlns="http://www.w3.org/2000/svg">
<g clip-path="url(#clip0_44_1109)">
<path d="M150 36.8175C146.618 44.0992 138.927 55.9081 125.455 53.1809C122.916 52.6863 120.284 53.0536 117.976 54.2244C115.669 55.3953 113.819 57.3027 112.719 59.6444C111.567 62.0674 109.917 64.2203 107.877 65.9628C105.837 67.7054 103.453 68.9983 100.879 69.7575C98.3062 70.5166 95.6018 70.7248 92.9427 70.3685C90.2835 70.0122 87.7294 69.0994 85.4467 67.6897C87.8345 65.2882 89.8314 62.5275 91.3648 59.508C91.5496 59.0654 91.561 58.5695 91.3968 58.1189C91.2327 57.6683 90.9049 57.2959 90.4787 57.076C90.0525 56.856 89.5591 56.8045 89.0967 56.9317C88.6343 57.059 88.2367 57.3556 87.983 57.7626C86.2854 61.0868 83.9824 64.065 81.1922 66.5442C78.4843 68.9181 75.3585 70.7677 71.9742 71.9987C65.9008 74.3241 59.2325 74.5936 52.9912 72.7661C46.7499 70.9385 41.2802 67.1147 37.4203 61.8807L38.2112 61.1443C40.432 58.8384 42.2895 56.2084 43.7202 53.3445C43.8622 53.1096 43.9512 52.8466 43.9808 52.5737C44.0104 52.3009 43.9799 52.0248 43.8916 51.765C43.8032 51.5051 43.6591 51.2678 43.4693 51.0695C43.2796 50.8712 43.0487 50.7169 42.793 50.6173C42.3503 50.418 41.8477 50.3976 41.3903 50.5603C40.9329 50.7229 40.556 51.056 40.3385 51.49C39.0418 54.0098 37.3577 56.3105 35.3476 58.308C34.7775 58.8871 34.1669 59.4248 33.5204 59.9171C29.3854 63.2108 24.1815 64.8649 18.9036 64.563C13.6257 64.2611 8.64434 62.0245 4.91186 58.2808C1.76592 55.1176 0 50.8377 0 46.3764C0 41.9152 1.76592 37.6353 4.91186 34.4721C6.15081 33.2235 7.63157 32.2408 9.26347 31.5843C10.8954 30.9278 12.6441 30.6112 14.4026 30.654C17.7836 30.7139 21.0097 32.0826 23.4024 34.4721C25.286 36.3677 26.3432 38.9315 26.3432 41.6038C26.3432 44.2761 25.286 46.8399 23.4024 48.7355C22.6919 49.4598 21.8427 50.0334 20.9055 50.4224C19.9684 50.8113 18.9626 51.0074 17.948 50.9991C16.9334 51.0074 15.9275 50.8113 14.9904 50.4224C14.0533 50.0334 13.2041 49.4598 12.4935 48.7355C12.3145 48.5564 12.1019 48.4144 11.8679 48.3175C11.6339 48.2205 11.3832 48.1707 11.1299 48.1707C10.8767 48.1707 10.6259 48.2205 10.3919 48.3175C10.158 48.4144 9.94539 48.5564 9.76632 48.7355C9.58724 48.9146 9.44519 49.1272 9.34828 49.3611C9.25137 49.5951 9.20149 49.8459 9.20149 50.0991C9.20149 50.3524 9.25137 50.6031 9.34828 50.8371C9.44519 51.071 9.58724 51.2836 9.76632 51.4627C10.8328 52.5473 12.107 53.4057 13.5128 53.9867C14.9185 54.5678 16.427 54.8595 17.948 54.8445C19.467 54.8458 20.9714 54.5478 22.3753 53.9676C23.7791 53.3873 25.0549 52.5362 26.1296 51.4627C28.736 48.8546 30.2 45.3183 30.2 41.6311C30.2 37.9439 28.736 34.4076 26.1296 31.7994C23.4503 29.1191 19.941 27.4269 16.1753 26.9995C16.1753 26.3996 16.1753 25.8268 16.1753 25.2541C16.1884 21.3411 17.2537 17.5036 19.2595 14.1438C21.2653 10.7839 24.1377 8.02535 27.576 6.15706C31.0142 4.28876 34.8916 3.37953 38.8019 3.52462C42.7123 3.66971 46.5116 4.86379 49.8019 6.98174C47.0221 10.8584 45.3616 15.4247 45.002 20.1815C44.9832 20.4434 45.0187 20.7064 45.1062 20.954C45.1937 21.2016 45.3314 21.4285 45.5106 21.6204C45.6897 21.8124 45.9066 21.9654 46.1476 22.0697C46.3885 22.1741 46.6485 22.2276 46.9111 22.2269C47.3924 22.2145 47.8518 22.0233 48.1997 21.6905C48.5476 21.3577 48.7591 20.9072 48.7928 20.4269C49.1094 16.495 50.4691 12.7186 52.7319 9.48745C54.9947 6.25628 58.0785 3.68729 61.6653 2.04547C64.5685 0.691182 67.7343 -0.0071603 70.9379 5.53518e-05C75.002 0.00238646 78.9372 1.42733 82.0606 4.02768C85.184 6.62804 87.2986 10.2397 88.0375 14.2362C88.2253 15.2801 88.3166 16.3391 88.3103 17.3997C88.3103 21.0162 86.8736 24.4846 84.3163 27.0419C81.7591 29.5992 78.2907 31.0358 74.6742 31.0358C71.9156 31.0215 69.274 29.9193 67.3234 27.9686C65.3727 26.018 64.2705 23.3764 64.2562 20.6178C64.2269 19.5492 64.413 18.4857 64.8035 17.4905C65.194 16.4954 65.7808 15.5891 66.5291 14.8256C67.2773 14.0621 68.1716 13.4571 69.1586 13.0465C70.1456 12.636 71.2052 12.4285 72.2742 12.4362C72.7541 12.4417 73.2199 12.2736 73.5857 11.9629C73.9515 11.6522 74.1928 11.2198 74.2651 10.7453C74.2957 10.4792 74.27 10.2096 74.1896 9.95408C74.1092 9.69856 73.9759 9.46282 73.7984 9.26219C73.6209 9.06155 73.4032 8.90051 73.1594 8.78954C72.9156 8.67857 72.6512 8.62014 72.3833 8.61807C70.8072 8.6033 69.2441 8.90421 67.7861 9.50306C66.3281 10.1019 65.0047 10.9866 63.894 12.1049C62.7833 13.2232 61.9077 14.5526 61.3189 16.0147C60.73 17.4767 60.4398 19.0419 60.4653 20.6178C60.4653 24.3935 61.9652 28.0145 64.635 30.6843C67.3048 33.3541 70.9258 34.8539 74.7014 34.8539C79.2969 34.8539 83.7046 33.0303 86.9567 29.7833C90.2087 26.5364 92.0393 22.1316 92.0466 17.5361C92.0466 16.9906 92.0466 16.4452 92.0466 15.8998C95.4222 16.0582 98.615 17.4793 100.992 19.8815C102.326 21.2087 103.371 22.7977 104.061 24.5483C104.751 26.299 105.071 28.1736 105.001 30.054V32.5903L107.455 32.0176C110.335 31.3533 113.327 31.3493 116.208 32.0058C119.089 32.6623 121.784 33.9623 124.091 35.8085C127.84 38.4885 132.29 40.0123 136.895 40.1916C141.499 40.3709 146.055 39.198 150 36.8175Z" fill="#D72323"/>
<path d="M3.75039 111.077V92.7143H17.1555L19.91 95.4688V103.181L17.1555 105.936H8.52448V111.078H3.75L3.75039 111.077ZM8.52506 101.896H15.136V96.7538H8.52506V101.896ZM67.6547 111.077V95.4684L70.4092 92.7139H81.0596L83.8141 95.4684V111.077H79.0397V105.936H72.4287V111.077H67.6542H67.6547ZM72.4294 101.896H79.0404V96.7538H72.4294V101.896ZM131.559 108.323V92.7139H136.334V107.037H146.25V111.077H134.314L131.559 108.323Z" fill="#D72323"/>
</g>
<defs>
<clipPath id="clip0_44_1109">
<rect width="150" height="111.364" fill="white"/>
</clipPath>
</defs>
</svg>
